<svg width="440" height="581" fill="none" xmlns="http://www.w3.org/2000/svg"><path stroke="#82AEDB" d="M.5 531.5h439v49H.5zm20-331.5C20.5 89.82 109.819.5 220 .5S419.5 89.82 419.5 200v331.5h-399V200z"/><circle cx="220" cy="152" r="90" fill="#E1EFF8"/><path d="M217.143 157.016h-12.48L201.975 163h-2.464l10.24-22.4h2.336l10.24 22.4h-2.496l-2.688-5.984zm-.864-1.92l-5.376-12.032-5.376 12.032h10.752zm14.117-5.312c3.242 0 5.6.587 7.072 1.76 1.493 1.152 2.24 2.773 2.24 4.864 0 1.301-.31 2.464-.928 3.488-.598 1.024-1.504 1.835-2.72 2.432-1.216.576-2.71.864-4.48.864-1.6 0-3.126-.256-4.576-.768-1.43-.533-2.582-1.237-3.456-2.112l1.12-1.824c.746.768 1.728 1.397 2.944 1.888 1.216.469 2.528.704 3.936.704 1.856 0 3.285-.416 4.288-1.248 1.024-.832 1.536-1.941 1.536-3.328 0-1.536-.576-2.699-1.728-3.488-1.131-.789-3.051-1.184-5.76-1.184h-4.768l1.152-11.232h12.256v2.048h-10.24l-.768 7.136h2.88z" fill="#464749"/></svg>