<svg xmlns="http://www.w3.org/2000/svg" xmlns:xlink="http://www.w3.org/1999/xlink"><symbol id="icon-arrows"><path d="M6.793 8.207a1 1 0 001.414 0l6.364-6.364A1 1 0 0013.157.43L7.5 6.086 1.843.429A1 1 0 00.43 1.843l6.364 6.364zM6.5 6.5v1h2v-1h-2z" fill="#82AEDB"/><path d="M6.793 13.207a1 1 0 001.414 0l6.364-6.364a1 1 0 00-1.414-1.414L7.5 11.086 1.843 5.429A1 1 0 00.43 6.843l6.364 6.364zM6.5 11.5v1h2v-1h-2z" fill="#82AEDB"/></symbol><symbol id="icon-checkbox-off"><circle cx="12.5" cy="12.5" r="12" stroke="#82AEDB"/></symbol><symbol id="icon-form"><path stroke="#82AEDB" d="M.5 531.5h439v49H.5zm20-331.5C20.5 89.82 109.819.5 220 .5S419.5 89.82 419.5 200v331.5h-399V200z"/><circle cx="220" cy="152" r="90" fill="#E1EFF8"/></symbol><symbol id="icon-menu-closed" viewBox="0 0 30 19">
<rect y="16.0531" width="30" height="2.67551" fill="#464749"/>
<rect y="8.02652" width="30" height="2.67551" fill="#464749"/>
<rect width="30" height="2.67551" fill="#464749"/>
</symbol><symbol id="icon-menu-opened" viewBox="0 0 22 18">
<rect x="3.92871" y="0.514717" width="22" height="2" transform="rotate(45 3.92871 0.514717)" fill="#464749"/>
<rect x="2.51465" y="16.0711" width="22" height="2" transform="rotate(-45 2.51465 16.0711)" fill="#464749"/>
</symbol><symbol id="icon-square"><rect x=".5" y=".5" width="99" height="99" rx="5.5" stroke="#82AEDB"/></symbol></svg>