<svg width="15" height="14" viewBox="0 0 15 14" fill="none" xmlns="http://www.w3.org/2000/svg">
<path d="M6.79289 8.20723C7.18342 8.59775 7.81658 8.59775 8.20711 8.20723L14.5711 1.84327C14.9616 1.45274 14.9616 0.819579 14.5711 0.429055C14.1805 0.0385306 13.5474 0.0385306 13.1569 0.429055L7.5 6.08591L1.84315 0.429055C1.45262 0.0385306 0.819457 0.0385306 0.428933 0.429055C0.0384087 0.819579 0.0384087 1.45274 0.428933 1.84327L6.79289 8.20723ZM6.5 6.50012V7.50012H8.5V6.50012H6.5Z" fill="#82AEDB"/>
<path d="M6.79289 13.2072C7.18342 13.5978 7.81658 13.5978 8.20711 13.2072L14.5711 6.84327C14.9616 6.45274 14.9616 5.81958 14.5711 5.42905C14.1805 5.03853 13.5474 5.03853 13.1569 5.42905L7.5 11.0859L1.84315 5.42905C1.45262 5.03853 0.819457 5.03853 0.428933 5.42905C0.0384087 5.81958 0.0384087 6.45274 0.428933 6.84327L6.79289 13.2072ZM6.5 11.5001V12.5001H8.5V11.5001H6.5Z" fill="#82AEDB"/>
</svg>
